#!OML:ASF F:\VICON\USERDATA\INSTALL\rory3\rory3.ASF
:FULLY-SPECIFIED
:DEGREES
3045
root -2.51356 17.4022 2.39199 7.4616 -3.58269 2.12595
lowerback 10.9846 -1.39408 3.07678
upperback 0.603229 -1.48164 -0.215043
thorax -5.61753 -0.80898 -1.7272
lowerneck -26.8208 -11.4059 -10.8884
upperneck 13.3871 -14.7527 14.7647
head 10.6576 -5.75304 4.40266
rclavicle 3.23025e-014 1.31198e-014
rhumerus 41.6179 -30.9551 -18.5029
rradius 38.3232
rwrist 36.2544
rhand -56.8352 -13.824
rfingers 7.12502
rthumb -29.1341 -41.5646
lclavicle 3.23025e-014 1.31198e-014
lhumerus -30.2215 -0.858983 74.9636
lradius 54.9322
lwrist -13.5814
lhand -21.7257 21.5884
lfingers 7.12502
lthumb 4.67359 411.517
rfemur -29.1551 -0.713778 15.8602
rtibia 43.9445
rfoot -17.3621 1.28867
rtoes 5.15705
lfemur -10.6222 -4.09113 -7.02875
ltibia 18.8909
lfoot -6.68473 22.6989
ltoes -22.1812
3046
root -2.51903 17.4021 2.38417 7.49969 -3.76866 2.23907
lowerback 10.9167 -1.42311 2.98688
upperback 0.518725 -1.5197 0.00387402
thorax -5.66204 -0.824031 -1.44123
lowerneck -26.1016 -11.4525 -11.1349
upperneck 13.7572 -14.9187 15.0091
head 10.74 -5.83689 4.51495
rclavicle -8.84592e-015 1.03368e-014
rhumerus 40.1495 -29.7803 -17.6828
rradius 40.5187
rwrist 36.0305
rhand -56.6462 -13.7638
rfingers 7.12502
rthumb -28.9536 -41.5355
lclavicle -8.84592e-015 1.03368e-014
lhumerus -29.7154 -1.74979 76.0878
lradius 55.1481
lwrist -13.6832
lhand -22.0193 21.5269
lfingers 7.12502
lthumb 4.39009 411.461
rfemur -29.2963 -0.447518 15.7254
rtibia 44.009
rfoot -17.4096 1.22416
rtoes 4.89149
lfemur -10.6165 -4.13979 -7.15049
ltibia 18.8557
lfoot -6.66012 22.9067
ltoes -21.8588
3047
root -2.52378 17.4007 2.37393 7.51588 -3.89927 2.36697
lowerback 10.9589 -1.51778 2.87911
upperback 0.454852 -1.64484 0.197106
thorax -5.75022 -0.881628 -1.15625
lowerneck -25.6792 -11.476 -11.2604
upperneck 14.3393 -15.0851 15.1831
head 10.9338 -5.90074 4.57925
rclavicle 4.67144e-015 2.38542e-015
rhumerus 38.5783 -28.593 -16.8714
rradius 42.9875
rwrist 35.5665
rhand -56.2557 -13.4194
rfingers 7.12502
rthumb -28.5806 -41.2545
lclavicle 4.67144e-015 2.38542e-015
lhumerus -29.171 -2.71178 77.1661
lradius 55.4424
lwrist -13.424
lhand -21.6735 22.1308
lfingers 7.12502
lthumb 4.72407 412.058
rfemur -29.4152 -0.243161 15.5739
rtibia 44.0655
rfoot -17.4361 1.15683
rtoes 5.07879
lfemur -10.6426 -4.16692 -7.2722
ltibia 18.8373
lfoot -6.69808 22.9929
ltoes -21.6118
3048
root -2.52636 17.4 2.36435 7.50314 -3.99044 2.43367
lowerback 11.0384 -1.63641 2.89212
upperback 0.4856 -1.78938 0.346211
thorax -5.76427 -0.950622 -0.982647
lowerneck -25.6962 -11.5333 -11.1087
upperneck 15.139 -15.3371 15.1434
head 11.2518 -5.98078 4.49599
rclavicle -1.44119e-014 -8.74653e-015
rhumerus 37.1822 -27.619 -16.351
rradius 45.3754
rwrist 35.3444
rhand -55.7244 -12.7698
rfingers 7.12502
rthumb -28.0728 -40.6893
lclavicle -1.44119e-014 -8.74653e-015
lhumerus -28.3766 -3.79684 78.1612
lradius 55.6943
lwrist -13.2658
lhand -21.1994 22.5926
lfingers 7.12502
lthumb 5.18184 412.509
rfemur -29.4852 -0.0811993 15.4927
rtibia 44.1163
rfoot -17.4242 1.11506
rtoes 5.1473
lfemur -10.6286 -4.22517 -7.33604
ltibia 18.8059
lfoot -6.76069 23.0612
ltoes -21.2795
3049
root -2.52922 17.3993 2.35869 7.48809 -4.12064 2.53082
lowerback 11.0545 -1.74234 2.82224
upperback 0.479597 -1.92743 0.524348
thorax -5.77658 -1.01423 -0.733931
lowerneck -25.3256 -11.5697 -11.1381
upperneck 15.7627 -15.5397 15.2266
head 11.4606 -6.06052 4.50544
rclavicle 2.52457e-014 3.97569e-015
rhumerus 35.8202 -26.3312 -15.8429
rradius 47.7845
rwrist 35.3432
rhand -55.0781 -12.3929
rfingers 7.12502
rthumb -27.4549 -40.4119
lclavicle 2.52457e-014 3.97569e-015
lhumerus -27.6248 -4.94483 79.2052
lradius 55.9716
lwrist -13.0056
lhand -21.1821 22.9908
lfingers 7.12502
lthumb 5.19856 412.907
rfemur -29.5315 0.125912 15.3694
rtibia 44.1775
rfoot -17.4938 1.08932
rtoes 4.74929
lfemur -10.575 -4.20561 -7.45372
ltibia 18.7535
lfoot -6.83037 23.114
ltoes -20.913
3050
root -2.53174 17.3981 2.35397 7.4713 -4.34039 2.56033
lowerback 11.0581 -1.84414 2.76099
upperback 0.440819 -2.05706 0.731161
thorax -5.81429 -1.07402 -0.461058
lowerneck -24.6762 -11.5325 -11.2877
upperneck 16.2364 -15.6524 15.4984
head 11.5837 -6.10622 4.63054
rclavicle 2.3059e-014 -1.35174e-014
rhumerus 34.1198 -24.7787 -15.1394
rradius 50.6065
rwrist 35.3547
rhand -54.5221 -13.0851
rfingers 7.12502
rthumb -26.923 -41.1874
lclavicle 2.3059e-014 -1.35174e-014
lhumerus -27.0656 -6.11516 80.2411
lradius 56.52
lwrist -12.6221
lhand -20.9212 23.6665
lfingers 7.12502
lthumb 5.4504 413.576
rfemur -29.589 0.333083 15.3229
rtibia 44.2362
rfoot -17.5337 1.06805
rtoes 4.65525
lfemur -10.4873 -4.14032 -7.51778
ltibia 18.7274
lfoot -6.82157 23.2665
ltoes -20.7105
3051
root -2.53317 17.3984 2.3495 7.4549 -4.55041 2.82669
lowerback 11.0223 -1.94402 2.43444
upperback 0.462376 -2.22231 0.901838
thorax -5.75687 -1.14366 -0.0742405
lowerneck -24.4208 -11.5595 -11.3582
upperneck 16.8715 -15.8306 15.6099
head 11.8235 -6.16795 4.66264
rclavicle -2.96189e-014 -5.56597e-015
rhumerus 32.5946 -23.3135 -14.6351
rradius 53.3806
rwrist 35.6163
rhand -54.0818 -13.3954
rfingers 7.12502
rthumb -26.5017 -41.562
lclavicle -2.96189e-014 -5.56597e-015
lhumerus -26.371 -7.25666 81.3135
lradius 57.0809
lwrist -12.4785
lhand -20.8389 24.1845
lfingers 7.12502
lthumb 5.52987 414.092
rfemur -29.6648 0.472825 15.0065
rtibia 44.299
rfoot -17.5511 1.07243
rtoes 4.73746
lfemur -10.4102 -4.10513 -7.85478
ltibia 18.686
lfoot -6.86423 23.3992
ltoes -20.1163
3052
root -2.53395 17.3983 2.33975 7.47633 -4.68664 3.00184
lowerback 11.0093 -2.0891 2.20675
upperback 0.51818 -2.43451 1.0776
thorax -5.67792 -1.23895 0.269305
lowerneck -24.2929 -11.5878 -11.3088
upperneck 17.5539 -16.0201 15.6094
head 12.0851 -6.23079 4.62948
rclavicle -3.63776e-014 -2.38542e-015
rhumerus 31.4064 -21.8792 -14.5631
rradius 55.9607
rwrist 36.1594
rhand -53.5187 -13.1071
rfingers 7.12502
rthumb -25.9625 -41.3538
lclavicle -3.63776e-014 -2.38542e-015
lhumerus -25.487 -8.58301 82.3082
lradius 57.5209
lwrist -12.2497
lhand -21.2736 24.3602
lfingers 7.12502
lthumb 5.11017 414.279
rfemur -29.8001 0.586255 14.7941
rtibia 44.3651
rfoot -17.5483 1.14973
rtoes 5.1327
lfemur -10.4018 -4.00507 -8.07654
ltibia 18.6157
lfoot -6.78442 23.4033
ltoes -19.927
3053
root -2.53315 17.3966 2.32934 7.49435 -4.8737 3.16963
lowerback 10.9905 -2.23546 2.01794
upperback 0.592099 -2.64649 1.21133
thorax -5.57744 -1.33604 0.545652
lowerneck -24.0351 -11.5693 -11.2149
upperneck 18.1001 -16.1738 15.6903
head 12.2735 -6.2769 4.63004
rclavicle 2.68359e-014 -1.66979e-014
rhumerus 30.1832 -20.4446 -14.6776
rradius 58.6217
rwrist 36.6337
rhand -52.8876 -12.7668
rfingers 7.12502
rthumb -25.3581 -41.1007
lclavicle 2.68359e-014 -1.66979e-014
lhumerus -24.5561 -9.93068 83.2015
lradius 58.0143
lwrist -12.0469
lhand -21.4725 24.6701
lfingers 7.12502
lthumb 4.91811 414.593
rfemur -29.9643 0.719997 14.5919
rtibia 44.4423
rfoot -17.491 1.17887
rtoes 5.2531
lfemur -10.358 -4.00723 -8.27842
ltibia 18.4863
lfoot -6.67686 23.5387
ltoes -19.7715
3054
root -2.53056 17.3966 2.32503 7.59101 -5.11709 3.42688
lowerback 10.8099 -2.36055 1.7611
upperback 0.609043 -2.84446 1.31053
thorax -5.44241 -1.42597 0.815439
lowerneck -23.6299 -11.4968 -11.2121
upperneck 18.6622 -16.2649 15.8671
head 12.4522 -6.29789 4.702
rclavicle -3.97569e-016 -2.46493e-014
rhumerus 28.8156 -18.839 -14.7265
rradius 61.3729
rwrist 37.0314
rhand -52.7377 -13.3385
rfingers 7.12502
rthumb -25.2145 -41.6928
lclavicle -3.97569e-016 -2.46493e-014
lhumerus -23.706 -11.164 84.1243
lradius 58.489
lwrist -12.09
lhand -21.4938 25.0501
lfingers 7.12502
lthumb 4.89758 414.974
rfemur -30.205 0.788045 14.2686
rtibia 44.5308
rfoot -17.4077 1.27142
rtoes 5.08126
lfemur -10.357 -3.92231 -8.61362
ltibia 18.3629
lfoot -6.58239 23.6794
ltoes -19.9464
3055
root -2.5293 17.3986 2.31769 7.70462 -5.29789 3.81945
lowerback 10.6653 -2.51727 1.32901
upperback 0.574244 -3.10227 1.42134
thorax -5.36912 -1.54152 1.20641
lowerneck -23.1437 -11.4291 -11.3107
upperneck 19.2584 -16.3285 15.9962
head 12.6285 -6.32317 4.78326
rclavicle 1.64991e-014 -8.74653e-015
rhumerus 27.6399 -17.0225 -14.977
rradius 63.9897
rwrist 37.6258
rhand -52.8772 -14.4702
rfingers 7.12502
rthumb -25.3481 -42.8055
lclavicle 1.64991e-014 -8.74653e-015
lhumerus -22.9374 -12.4274 85.0877
lradius 59.0172
lwrist -11.865
lhand -21.5448 25.4165
lfingers 7.12502
lthumb 4.84827 415.341
rfemur -30.4681 0.803959 13.8021
rtibia 44.625
rfoot -17.3905 1.37511
rtoes 4.93012
lfemur -10.4101 -3.99775 -9.07477
ltibia 18.214
lfoot -6.68166 23.9143
ltoes -19.4467
3056
root -2.5278 17.3978 2.30613 7.7471 -5.41755 4.0633
lowerback 10.6465 -2.70822 0.993973
upperback 0.607804 -3.38824 1.58253
thorax -5.29162 -1.67292 1.6027
lowerneck -22.8081 -11.4372 -11.4153
upperneck 19.8801 -16.4666 16.0419
head 12.8474 -6.38241 4.81401
rclavicle -1.72943e-014 1.27222e-014
rhumerus 26.6043 -15.1698 -15.3222
rradius 66.474
rwrist 38.1142
rhand -52.8792 -14.9434
rfingers 7.12502
rthumb -25.3501 -43.2785
lclavicle -1.72943e-014 1.27222e-014
lhumerus -21.897 -13.7244 85.9406
lradius 59.5095
lwrist -11.4728
lhand -21.1986 25.8246
lfingers 7.12502
lthumb 5.18256 415.741
rfemur -30.6471 0.875661 13.5091
rtibia 44.705
rfoot -17.4075 1.40873
rtoes 4.94466
lfemur -10.4125 -4.10728 -9.35281
ltibia 18.0675
lfoot -6.64771 24.1192
ltoes -19.0354
3057
root -2.52394 17.3971 2.29814 7.70386 -5.63952 4.11515
lowerback 10.6181 -2.90977 0.866734
upperback 0.723689 -3.66433 1.75085
thorax -5.13027 -1.80548 1.88406
lowerneck -22.8017 -11.4854 -11.3968
upperneck 20.8549 -16.689 15.9118
head 13.2558 -6.45818 4.73797
rclavicle 2.00773e-014 -2.06736e-014
rhumerus 25.3977 -13.2575 -15.6453
rradius 69.0707
rwrist 38.4756
rhand -52.6433 -14.4511
rfingers 7.12502
rthumb -25.124 -42.818
lclavicle 2.00773e-014 -2.06736e-014
lhumerus -20.735 -14.9141 86.6342
lradius 60.0054
lwrist -11.3493
lhand -20.1852 26.5122
lfingers 7.12502
lthumb 6.16104 416.403
rfemur -30.7062 1.00292 13.4237
rtibia 44.7546
rfoot -17.366 1.5208
rtoes 5.19087
lfemur -10.2686 -4.11085 -9.44581
ltibia 17.951
lfoot -6.50387 24.3043
ltoes -19.2545
3058
root -2.52022 17.3975 2.29285 7.71909 -5.90393 4.11728
lowerback 10.5195 -3.11867 0.743967
upperback 0.818618 -3.94957 1.9481
thorax -4.94685 -1.94348 2.18942
lowerneck -22.8782 -11.496 -11.406
upperneck 22.0033 -16.8509 15.709
head 13.7442 -6.5077 4.65507
rclavicle 4.57205e-014 1.59028e-015
rhumerus 24.2679 -11.2408 -16.1256
rradius 71.5966
rwrist 39.0796
rhand -52.4892 -14.5678
rfingers 7.12502
rthumb -24.9764 -42.9553
lclavicle 4.57205e-014 1.59028e-015
lhumerus -19.5109 -16.1947 87.2642
lradius 60.4056
lwrist -10.914
lhand -19.4887 27.1862
lfingers 7.12502
lthumb 6.83344 417.056
rfemur -30.8092 1.12829 13.3994
rtibia 44.7785
rfoot -17.2819 1.63176
rtoes 5.28731
lfemur -10.1784 -4.05467 -9.47988
ltibia 17.8527
lfoot -6.43563 24.4718
ltoes -19.2241
